<svg width="20" height="23" viewBox="0 0 20 23" fill="none" xmlns="http://www.w3.org/2000/svg">
<path d="M7.975 7.97488C8.46445 7.48539 8.79776 6.86174 8.93278 6.18282C9.0678 5.5039 8.99846 4.80018 8.73355 4.16066C8.46863 3.52114 8.02003 2.97454 7.44446 2.58997C6.8689 2.2054 6.19222 2.00014 5.5 2.00014C4.80778 2.00014 4.13111 2.2054 3.55554 2.58997C2.97998 2.97454 2.53138 3.52114 2.26646 4.16066C2.00154 4.80018 1.93221 5.5039 2.06723 6.18282C2.20225 6.86174 2.53555 7.48539 3.025 7.97488L5.5 10.4499L7.975 7.97488ZM5.5 13.2779L1.61 9.38988C0.841072 8.62059 0.317504 7.64058 0.105495 6.57376C-0.106515 5.50693 0.00255424 4.4012 0.418912 3.39635C0.83527 2.39151 1.54022 1.53268 2.44463 0.928447C3.34905 0.324213 4.41232 0.00170898 5.5 0.00170898C6.58769 0.00170898 7.65096 0.324213 8.55537 0.928447C9.45978 1.53268 10.1647 2.39151 10.5811 3.39635C10.9975 4.4012 11.1065 5.50693 10.8945 6.57376C10.6825 7.64058 10.1589 8.62059 9.39 9.38988L5.5 13.2799V13.2779ZM5.5 6.99988C5.10218 6.99988 4.72065 6.84185 4.43934 6.56054C4.15804 6.27924 4 5.89771 4 5.49988C4 5.10206 4.15804 4.72053 4.43934 4.43922C4.72065 4.15792 5.10218 3.99988 5.5 3.99988C5.89783 3.99988 6.27936 4.15792 6.56066 4.43922C6.84197 4.72053 7 5.10206 7 5.49988C7 5.89771 6.84197 6.27924 6.56066 6.56054C6.27936 6.84185 5.89783 6.99988 5.5 6.99988ZM14.5 19.4499L16.975 16.9749C17.4645 16.4854 17.7978 15.8617 17.9328 15.1828C18.0678 14.5039 17.9985 13.8002 17.7335 13.1607C17.4686 12.5211 17.02 11.9745 16.4445 11.59C15.8689 11.2054 15.1922 11.0001 14.5 11.0001C13.8078 11.0001 13.1311 11.2054 12.5555 11.59C11.98 11.9745 11.5314 12.5211 11.2665 13.1607C11.0015 13.8002 10.9322 14.5039 11.0672 15.1828C11.2022 15.8617 11.5356 16.4854 12.025 16.9749L14.5 19.4499ZM18.39 18.3899L14.5 22.2779L10.61 18.3889C9.84107 17.6196 9.3175 16.6396 9.1055 15.5728C8.89349 14.5059 9.00255 13.4002 9.41891 12.3954C9.83527 11.3905 10.5402 10.5317 11.4446 9.92745C12.349 9.32321 13.4123 9.00071 14.5 9.00071C15.5877 9.00071 16.651 9.32321 17.5554 9.92745C18.4598 10.5317 19.1647 11.3905 19.5811 12.3954C19.9974 13.4002 20.1065 14.5059 19.8945 15.5728C19.6825 16.6396 19.1589 17.6196 18.39 18.3889V18.3899ZM14.5 15.9999C14.1022 15.9999 13.7206 15.8418 13.4393 15.5605C13.158 15.2792 13 14.8977 13 14.4999C13 14.1021 13.158 13.7205 13.4393 13.4392C13.7206 13.1579 14.1022 12.9999 14.5 12.9999C14.8978 12.9999 15.2794 13.1579 15.5607 13.4392C15.842 13.7205 16 14.1021 16 14.4999C16 14.8977 15.842 15.2792 15.5607 15.5605C15.2794 15.8418 14.8978 15.9999 14.5 15.9999Z" fill="#0E77EF"/>
</svg>
